<svg xmlns="http://www.w3.org/2000/svg" viewBox="0 0 640 360" role="img" aria-labelledby="title description">
  <title id="title">Student Elevation Award</title>
  <desc id="description">A purple and gold academic award medallion with a star and laurel branches.</desc>
  <rect width="640" height="360" rx="28" fill="#fff9fd"/>
  <circle cx="320" cy="164" r="104" fill="#cce7d8" stroke="#007c41" stroke-width="10"/>
  <circle cx="320" cy="164" r="78" fill="#007c41"/>
  <path d="m320 94 17 35 39 6-28 27 7 39-35-18-35 18 7-39-28-27 39-6z" fill="#f4c95d"/>
  <path d="M258 136c-31 16-48 43-50 77m44-54-31-12m26 35-34 2m43 20-30 15M382 136c31 16 48 43 50 77m-44-54 31-12m-26 35 34 2m-43 20 30 15" fill="none" stroke="#005c30" stroke-width="8" stroke-linecap="round"/>
  <path d="m275 247-28 79 73-33 73 33-28-79" fill="#005c30" stroke="#007c41" stroke-width="6" stroke-linejoin="round"/>
  <rect x="116" y="28" width="408" height="42" rx="21" fill="#d2e9dc"/>
  <text x="320" y="57" text-anchor="middle" font-family="Segoe UI, Arial, sans-serif" font-size="24" font-weight="700" fill="#005c30">STUDENT ELEVATION AWARD</text>
</svg>
